<svg width="160" height="125" viewBox="0 0 160 125" fill="none" xmlns="http://www.w3.org/2000/svg">
<path d="M34.08 75.36L5.12 7.52C4.37333 5.70666 4.16 4.26666 4.48 3.2C4.90666 2.02667 5.70666 1.22667 6.88 0.799999C8.05333 0.266666 9.33333 0.266666 10.72 0.799999C12.2133 1.22667 13.3333 2.34667 14.08 4.15999L40.32 65.44L34.08 75.36ZM1.92 123.04C0.959997 122.4 0.37333 121.493 0.159997 120.32C0.0533303 119.147 0.37333 118.027 1.12 116.96L75.2 3.52C76.16 2.02667 77.3867 1.12 78.88 0.799999C80.48 0.479997 81.8133 0.746663 82.88 1.6C83.7333 2.24 84.2667 3.2 84.48 4.48C84.6933 5.65333 84.3733 6.98666 83.52 8.48L9.28 122.08C8.32 123.467 7.14666 124.16 5.76 124.16C4.37333 124.267 3.09333 123.893 1.92 123.04ZM103.562 124.16C98.3358 124.16 94.0158 122.613 90.6025 119.52C87.1892 116.32 84.7358 111.733 83.2425 105.76C81.8558 99.7867 81.4292 92.5867 81.9625 84.16C82.4958 75.6267 84.0958 66.0267 86.7625 55.36C91.1358 38.4 97.5358 25.0667 105.962 15.36C114.389 5.54667 124.522 0.640001 136.362 0.640001C141.696 0.640001 146.176 2.18667 149.803 5.28C153.536 8.37333 156.469 12.96 158.603 19.04C159.029 20.1067 158.976 21.12 158.443 22.08C158.016 23.04 157.163 23.7333 155.882 24.16C154.389 24.5867 153.056 24.5333 151.882 24C150.709 23.4667 149.856 22.5067 149.322 21.12C147.829 17.1733 145.962 14.24 143.722 12.32C141.482 10.2933 138.816 9.27999 135.722 9.27999C127.296 9.27999 119.669 13.0133 112.842 20.48C106.016 27.9467 100.736 39.04 97.0025 53.76C95.0825 61.44 93.6425 68.48 92.6825 74.88C91.8292 81.28 91.4025 87.04 91.4025 92.16C91.5092 97.1733 92.0425 101.44 93.0025 104.96C93.9625 108.48 95.4025 111.147 97.3225 112.96C99.3492 114.773 101.802 115.68 104.682 115.68C112.149 115.68 119.349 112.267 126.282 105.44C133.216 98.5067 138.976 89.12 143.563 77.28C145.803 71.7333 147.456 67.7867 148.522 65.44C149.696 63.0933 150.656 61.6533 151.403 61.12C152.256 60.5867 153.216 60.32 154.283 60.32C155.136 60.32 155.936 60.5333 156.682 60.96C157.429 61.28 158.016 61.8667 158.443 62.72C158.869 63.4667 158.922 64.48 158.603 65.76L145.003 119.36C144.682 120.427 144.096 121.493 143.243 122.56C142.496 123.627 141.056 124.16 138.922 124.16C137.109 124.16 135.989 123.573 135.562 122.4C135.136 121.12 135.029 119.947 135.242 118.88L141.962 93.76L143.082 94.24C139.349 101.173 135.402 106.88 131.242 111.36C127.082 115.733 122.709 118.987 118.122 121.12C113.536 123.147 108.682 124.16 103.562 124.16Z" fill="#636677"/>
</svg>
